<svg xmlns="http://www.w3.org/2000/svg" enable-background="new 0 0 52 52" viewBox="0 0 52 52"><path fill="#C7C7C7" d="M36.29387,13.28479v15.39432H15.70616V13.28479c0-6.22621,4.61449-11.285,10.29385-11.285
			C31.62379,1.99979,36.29387,6.99786,36.29387,13.28479z"/><path fill="#E5A35A" d="M30.06096,18.27587v4.31314c0,2.24891-1.81431,4.06322-4.05241,4.06322
			c-2.23803,0-4.06322-1.81431-4.06322-4.06322v-4.31314c0-0.67358,0.55409-1.22766,1.22766-1.22766h5.66029
			C29.50687,17.0482,30.06096,17.60229,30.06096,18.27587z"/><path fill="#FFBC74" d="M26.00001,21.14536c-3.95267,0-7.17052-4.28052-7.17052-9.57274
				c0-0.68489,0.05065-1.33871,0.15202-1.97685c0.34201,0.01558,1.20348,0.03116,2.31834-0.10897h0.05072
				c1.78627-0.24901,4.20606-0.88725,6.15703-2.55277c0.10002,0.04262,2.11518,2.59023,5.39693,2.07024
				C34.14232,14.65256,31.02061,21.14536,26.00001,21.14536z"/><path d="M26.00175,21.14237c-2.14001,0-4.06-1.25-5.37-3.23999c0.90997,0.56,1.92999,0.87,2.98999,0.87
				c4.6473,0,7.61104-5.80589,7.15997-9.85999c0.5534,0.14285,1.34192,0.20978,2.11999,0.08997
				C34.15174,14.6281,31.02555,21.14237,26.00175,21.14237z" opacity=".04"/><path fill="#E4F1FF" d="M43.4585,23.61424v25.01001c-9.56-5.78998-17.02997-0.41998-17.35999,1.38H25.8985
					c-0.32001-1.79999-7.79999-7.15997-17.35999-1.38V23.61424c0,0,0,0,0.01001-0.00995
					c5.82001-1.98004,11.63-1.47003,17.45001,1.54999c5.82001-3.03003,11.63-3.53003,17.44995-1.54999
					C43.4585,23.61424,43.4585,23.61424,43.4585,23.61424z"/><path d="M43.4585,23.61424v25.01001c-9.56-5.77997-17.03998-0.41998-17.35999,1.38H25.8985
				c-0.32001-1.79999-7.79999-7.15997-17.35999-1.38v-6.07001c18.12961,0.01693,7.03238-0.02954,24.34998,0.03003
				c3.59003,0.01001,6.51001-2.89001,6.51001-6.47998V22.63426c1.35004,0.17999,2.70001,0.51001,4.04999,0.97003
				C43.4585,23.61424,43.4585,23.61424,43.4585,23.61424z" opacity=".04"/><path fill="#FFF" d="M45.10173,35.03151v3.35916c0,0.68914-0.52313,1.24779-1.16844,1.24779h-3.45507
					c-1.51678,0-2.74122-1.31735-2.74122-2.92737c0-0.80993,0.30155-1.54177,0.8041-2.06867
					c0.4934-0.53673,1.1787-0.8587,1.93712-0.8587h3.45507C44.5786,33.78372,45.10173,34.34237,45.10173,35.03151z"/><path d="M45.10173,35.03239v3.35999c0,0.69-0.52002,1.25-1.16998,1.25h-3.45001c-1.33002,0-2.41998-1.01001-2.67999-2.32996
					c0.13,0.02997,0.26001,0.03998,0.39001,0.03998h3.45996c0.64001,0,1.16003-0.56,1.16003-1.25v-2.32001h1.12
					C44.58171,33.78239,45.10173,34.34239,45.10173,35.03239z" opacity=".04"/><path fill="#FFF" d="M6.8983,35.03151v3.35916c0,0.68914,0.52313,1.24779,1.16844,1.24779h3.45508
					c1.51678,0,2.74122-1.31735,2.74122-2.92737c0-0.80993-0.30155-1.54177-0.8041-2.06867
					c-0.4934-0.53673-1.1787-0.8587-1.93712-0.8587H8.06674C7.42143,33.78372,6.8983,34.34237,6.8983,35.03151z"/><path d="M14.2617,36.71238c0,1.60999-1.21997,2.92999-2.73999,2.92999H8.0717c-0.64996,0-1.16998-0.56-1.16998-1.25v-1.14001
					h2.87c1.52002,0,2.73999-1.31,2.73999-2.91998c0-0.12-0.00995-0.23999-0.01996-0.35999
					c0.37,0.14001,0.70001,0.37,0.96997,0.66998C13.96171,35.17241,14.2617,35.90239,14.2617,36.71238z" opacity=".04"/><path fill="#293C66" d="M44.45703,32.85753v-9.24182c0-0.25586-0.10645-0.51123-0.2832-0.69678
			c-0.11133-0.11768-0.24902-0.20654-0.40332-0.25879c-2.15094-0.73376-4.31293-1.13232-6.47656-1.20966v-8.16583
			c0-6.77393-5.06641-12.28467-11.29395-12.28467S14.70605,6.51073,14.70605,13.28465v8.16595
			c-2.16266,0.07764-4.32379,0.47614-6.47363,1.20953c-0.1543,0.05225-0.30078,0.15039-0.41211,0.26807
			c-0.17676,0.18555-0.27441,0.43164-0.27441,0.6875v9.24091c-0.94342,0.24335-1.64746,1.12238-1.64746,2.17511v3.35889
			c0,1.05273,0.70404,1.93176,1.64746,2.17511v8.05731c0,0.36084,0.19434,0.69385,0.50879,0.87109
			c0.31445,0.17773,0.7002,0.17139,1.00879-0.01563c2.70605-1.63818,5.44238-2.46875,8.13379-2.46875
			c4.70117,0,7.53809,2.52734,7.72168,3.16797c0.08594,0.47607,0.50098,0.82227,0.98438,0.82227H26
			c0.00055,0,0.00092-0.00031,0.00146-0.00031l0.00146,0.00031h0.09668c0.4834,0,0.89551-0.33496,0.98145-0.81104
			c0.18652-0.65186,3.02344-3.1792,7.72461-3.1792c2.69141,0,5.42773,0.83057,8.13379,2.46875
			c0.30859,0.18604,0.69434,0.19238,1.00879,0.01563c0.31445-0.17725,0.50879-0.51025,0.50879-0.87109V40.5648
			c0.94196-0.24445,1.64453-1.12262,1.64453-2.17419v-3.35889C46.10156,33.98015,45.39899,33.10197,44.45703,32.85753z
			 M44.10156,38.39061c0,0.14209-0.08887,0.24805-0.16797,0.24805h-3.45508c-0.95996,0-1.74121-0.86475-1.74121-1.92773
			c0-1.01989,0.74011-1.92725,1.74121-1.92725h3.45508c0.0791,0,0.16797,0.10596,0.16797,0.24805V38.39061z M26,2.99998
			c5.125,0,9.29395,4.61377,9.29395,10.28467v8.18854c-1.4126,0.08136-2.82458,0.29834-4.2334,0.65863v-2.23169
			c0.19727-0.20221,0.38824-0.41632,0.57129-0.6438c2.16895-2.69629,3.05176-6.80469,2.24902-10.46631
			c-0.11328-0.51709-0.61133-0.85742-1.13281-0.77344c-1.59375,0.25244-3.09473-0.32227-4.42285-1.68262
			c-0.11816-0.12158-0.23047-0.23682-0.4248-0.31982c-0.35059-0.14795-0.75195-0.0874-1.04199,0.15918
			c-2.05779,1.75647-5.18289,2.53979-7.83105,2.42334c-0.50977-0.01758-0.9541,0.33887-1.0332,0.8418
			c-0.11133,0.69678-0.16504,1.39502-0.16504,2.13428c0,3.36047,1.22174,6.35309,3.11621,8.29102v2.2688
			c-1.41077-0.36096-2.82471-0.57837-4.23926-0.65961v-8.18829C16.70605,7.61375,20.875,2.99998,26,2.99998z M26.00153,24.03709
			c-1.01117-0.50287-2.02563-0.93774-3.04254-1.2948c-0.0033-0.05151-0.01367-0.10095-0.01367-0.15344v-1.21716
			c0.94476,0.49487,1.97437,0.7738,3.05469,0.7738c1.06903,0,2.10455-0.25818,3.06055-0.74994v1.1933
			c0,0.05219-0.01038,0.10132-0.01361,0.15259C28.02905,23.09874,27.01379,23.5338,26.00153,24.03709z M30.07324,18.00291
			C29.28711,18.98045,27.94141,20.14549,26,20.14549c-3.40234,0-6.1709-3.8457-6.1709-8.57275
			c0-0.33301,0.0127-0.65576,0.03809-0.97314c2.67122-0.07596,5.43997-0.83392,7.57617-2.34912
			c1.70996,1.49219,3.41016,1.82373,4.58301,1.82373c0.01758,0,0.03516,0,0.05176,0
			C32.46387,12.93162,31.71289,15.96483,30.07324,18.00291z M8.06641,38.63866c-0.0791,0-0.16797-0.10596-0.16797-0.24805v-3.35889
			c0-0.14209,0.08887-0.24805,0.16797-0.24805h3.45508c1.00243,0,1.74121,0.91492,1.74121,1.92725
			c0,1.06299-0.78125,1.92773-1.74121,1.92773H8.06641z M25,47.40672c-1.73926-1.29443-4.53125-2.39697-7.80273-2.39697
			c-2.55078,0-5.11719,0.64453-7.65137,1.91748v-6.28857h1.97559c2.0625,0,3.74121-1.76221,3.74121-3.92773
			c0-2.22828-1.72072-3.92725-3.74121-3.92725H9.5459v-8.44727C14.69824,22.7578,19.85742,23.23875,25,25.76561V47.40672z
			 M34.80566,45.00975c-3.27148,0-6.06348,1.10254-7.80273,2.39697V25.76561c5.14355-2.52686,10.30176-3.00781,15.4541-1.4292
			v8.44727h-1.97852c-2.09851,0-3.74121,1.7769-3.74121,3.92725c0,2.16553,1.6787,3.92773,3.74121,3.92773h1.97852v6.28857
			C39.92285,45.65428,37.35645,45.00975,34.80566,45.00975z"/></svg>