<svg xmlns="http://www.w3.org/2000/svg" enable-background="new 0 0 64 64" viewBox="0 0 64 64"><path fill="#2b2e63" d="M8.3,56.6H5.9v-6.3h2.4V56.6z M8.3,42.3H5.9V36h2.4V42.3z M58.1,60.1c0,1.1-0.9,1.9-1.9,1.9H20.3V1.9h35.9
		c1.1,0,1.9,0.9,1.9,1.9V60.1z M56.2,0H19.3c0,0,0,0,0,0h-7.1c-2.1,0-3.9,1.7-3.9,3.9v1.5H4.9c-0.5,0-1,0.4-1,1v8.3c0,0.5,0.4,1,1,1
		h3.4v4.1H4.9c-0.5,0-1,0.4-1,1V29c0,0.5,0.4,1,1,1h3.4V34H4.9c-0.5,0-1,0.4-1,1v8.3c0,0.5,0.4,1,1,1h3.4v4.1H4.9c-0.5,0-1,0.4-1,1
		v8.3c0,0.5,0.4,1,1,1h3.4v1.6c0,2.1,1.7,3.9,3.9,3.9h44c2.1,0,3.9-1.7,3.9-3.9V3.9C60.1,1.7,58.3,0,56.2,0z M8.3,28H5.9v-6.4h2.4
		V28z M8.3,13.7H5.9V7.4h2.4V13.7z M18.3,62.1h-6.1c-1.1,0-1.9-0.9-1.9-1.9V3.9c0-1.1,0.9-1.9,1.9-1.9h6.1V62.1z"/><rect width="2.5" height="6.3" x="5.9" y="7.4" fill="#f26e61"/><path fill="#51bf9f" d="M47.7,41.6h-17c0.3-4,4-7.2,8.5-7.2C43.7,34.3,47.4,37.5,47.7,41.6z"/><rect width="2.5" height="6.3" x="5.9" y="21.7" fill="#f26e61"/><rect width="2.5" height="6.3" x="5.9" y="36" fill="#f26e61"/><rect width="2.5" height="6.3" x="5.9" y="50.3" fill="#f26e61"/><path fill="#f26e61" d="M18.3,1.9v60.1h-6.1c-1.1,0-1.9-0.9-1.9-1.9V3.9c0-1.1,0.9-1.9,1.9-1.9H18.3z"/><path fill="#d7e9f2" d="M56.2,1.9H20.3v60.1h35.9c1.1,0,1.9-0.9,1.9-1.9V3.9C58.1,2.8,57.2,1.9,56.2,1.9z M39.2,20.5
		c2.8,0,5.2,2.3,5.2,5.1s-2.3,5.1-5.2,5.1S34,28.5,34,25.6S36.4,20.5,39.2,20.5z M49.6,42.6c0,0.5-0.5,0.9-1,0.9H29.7
		c-0.5,0-0.9-0.4-1-0.9c0-0.2,0-0.4,0-0.6c0-5.3,4.7-9.6,10.4-9.6s10.4,4.3,10.4,9.6C49.6,42.2,49.6,42.4,49.6,42.6z"/><path fill="#e15e5a" d="M11.8,3.9v56.2c0,0.2,0.2,0.4,0.4,0.4h6.1v1.5h-6.1c-1.1,0-1.9-0.9-1.9-1.9V3.9c0-1.1,0.9-1.9,1.9-1.9h6.1v1.5
		h-6.1C12,3.4,11.8,3.6,11.8,3.9z"/><path fill="#a0c3d8" d="M58.1,3.9v56.2c0,1.1-0.9,1.9-1.9,1.9H20.3v-1.5h35.9c0.2,0,0.4-0.2,0.4-0.4V3.9c0-0.2-0.2-0.4-0.4-0.4H20.3
		V1.9h35.9C57.2,1.9,58.1,2.8,58.1,3.9z"/><path fill="#2b2e63" d="M39.2 32.4c-5.8 0-10.4 4.3-10.4 9.6 0 .2 0 .4 0 .6 0 .5.5.9 1 .9h18.9c.5 0 .9-.4 1-.9 0-.2 0-.4 0-.6C49.6 36.7 45 32.4 39.2 32.4zM30.7 41.6c.3-4 4-7.2 8.5-7.2 4.5 0 8.2 3.2 8.5 7.2H30.7zM39.2 20.5c-2.8 0-5.2 2.3-5.2 5.1s2.3 5.1 5.2 5.1 5.2-2.3 5.2-5.1S42 20.5 39.2 20.5zM39.2 28.9c-1.8 0-3.2-1.4-3.2-3.2s1.4-3.2 3.2-3.2 3.2 1.4 3.2 3.2S41 28.9 39.2 28.9z"/><circle cx="39.2" cy="25.6" r="3.2" fill="#ffe5ab"/><path fill="#3da580" d="M39.2,34.3c-4.5,0-8.2,3.2-8.5,7.2h17C47.4,37.5,43.7,34.3,39.2,34.3z M39.2,35.3c3.6,0,6.6,2.2,7.3,5.2H31.9
		C32.6,37.5,35.6,35.3,39.2,35.3z"/><path fill="#f0d39a" d="M39.2,22.4c-1.8,0-3.2,1.4-3.2,3.2s1.4,3.2,3.2,3.2s3.2-1.4,3.2-3.2S41,22.4,39.2,22.4z M39.2,27.9
		c-1.2,0-2.2-1-2.2-2.2c0-1.2,1-2.2,2.2-2.2s2.2,1,2.2,2.2C41.4,26.9,40.4,27.9,39.2,27.9z"/></svg>